<?xml version="1.0" encoding="UTF-8" standalone="no"?>
<!-- Created with Inkscape (http://www.inkscape.org/) -->

<svg
   xmlns:dc="http://purl.org/dc/elements/1.1/"
   xmlns:cc="http://creativecommons.org/ns#"
   xmlns:rdf="http://www.w3.org/1999/02/22-rdf-syntax-ns#"
   xmlns:svg="http://www.w3.org/2000/svg"
   xmlns="http://www.w3.org/2000/svg"
   xmlns:sodipodi="http://sodipodi.sourceforge.net/DTD/sodipodi-0.dtd"
   xmlns:inkscape="http://www.inkscape.org/namespaces/inkscape"
   width="744.09448819"
   height="1052.3622047"
   id="svg2"
   version="1.1"
   inkscape:version="0.48.1 r9760"
   sodipodi:docname="New document 1">
  <defs
     id="defs4" />
  <sodipodi:namedview
     id="base"
     pagecolor="#ffffff"
     bordercolor="#666666"
     borderopacity="1.0"
     inkscape:pageopacity="0.0"
     inkscape:pageshadow="2"
     inkscape:zoom="1.979899"
     inkscape:cx="217.65676"
     inkscape:cy="1017.3319"
     inkscape:document-units="px"
     inkscape:current-layer="layer1"
     showgrid="false"
     inkscape:window-width="1920"
     inkscape:window-height="1030"
     inkscape:window-x="0"
     inkscape:window-y="0"
     inkscape:window-maximized="1" />
  <metadata
     id="metadata7">
    <rdf:RDF>
      <cc:Work
         rdf:about="">
        <dc:format>image/svg+xml</dc:format>
        <dc:type
           rdf:resource="http://purl.org/dc/dcmitype/StillImage" />
        <dc:title></dc:title>
      </cc:Work>
    </rdf:RDF>
  </metadata>
  <g
     inkscape:label="Layer 1"
     inkscape:groupmode="layer"
     id="layer1">
    <path
       inkscape:connector-curvature="0"
       id="path3211"
       d="m 84.296202,672.29337 0,-47.5 232.499998,0 232.5,0 0,47.5 0,47.5 -232.5,0 -232.499998,0 0,-47.5 z"
       style="fill:#ffffff" />
    <g
       id="g3989"
       transform="translate(-23.233509,-462.64987)">
      <path
         style="fill:#ff7a00;fill-opacity:1"
         d="m 192.61853,606.5549 c -64.20464,-0.98523 -82.28506,-1.98356 -95.104665,-5.25129 -16.66551,-4.24805 -22.18,-8.57911 -25.45239,-19.99023 -2.5126,-8.76166 -3.02691,-26.23853 -1.04903,-35.64694 4.24561,-20.19552 11.71645,-25.46371 39.606085,-27.92887 32.59062,-2.88068 168.55594,-5.0587 316.25,-5.06597 l 104.75,-0.005 0,47.5 0,47.5 -143.75,-0.16064 c -79.0625,-0.0883 -166.925,-0.51625 -195.25,-0.9509 z m -66.52384,-45.98094 c 3.16128,-1.39839 6.19789,-1.97576 9.15447,-1.74062 l 4.42407,0.35186 -0.27735,-13.00938 -0.27735,-13.00938 -4.35511,-0.31263 c -2.39531,-0.17195 -6.4696,0.44772 -9.05397,1.37705 -4.35398,1.56567 -4.92979,1.57026 -7.84523,0.0626 -3.15338,-1.63067 -9.69876,-2.1579 -12.66391,-1.02006 -1.32692,0.50918 -1.58188,2.64409 -1.5824,13.25 l -6.3e-4,12.64301 4.75062,-0.26698 c 3.88462,-0.21831 9.30067,1.33245 12.87351,3.68603 0.0676,0.0445 2.25156,-0.86067 4.85328,-2.01153 z m 40.52384,-4.40752 0,-5.5 3.5,0 c 3.22222,0 3.5,-0.23809 3.5,-3 0,-2.7619 -0.27778,-3 -3.5,-3 -3.06667,0 -3.5,-0.30952 -3.5,-2.5 0,-2.25 0.4,-2.5 4,-2.5 3.6,0 4,-0.25 4,-2.5 0,-2.41026 -0.23333,-2.5 -6.5,-2.5 l -6.5,0 0,13.5 0,13.5 2.5,0 c 2.36363,0 2.5,-0.3 2.5,-5.5 z m 25,2.5 c 0,-2.83333 -0.22222,-3 -4,-3 l -4,0 0,-10.5 0,-10.5 -2.5,0 -2.5,0 0,13.5 0,13.5 6.5,0 6.5,0 0,-3 z m 21.07955,1.29394 c 8.32343,-4.91678 7.71279,-20.24725 -0.98567,-24.74539 -10.23388,-5.29215 -21.22188,4.83495 -18.04538,16.63155 1.64888,6.12349 6.03529,9.8199 11.65296,9.8199 2.46948,0 5.78962,-0.76773 7.37809,-1.70606 z m -10.74278,-5.77061 c -4.66349,-3.26644 -3.62636,-11.33231 1.74312,-13.55642 5.58048,-2.31151 10.9408,3.8067 8.77595,10.01678 -1.69564,4.86413 -6.37841,6.43987 -10.51907,3.53964 z m 34.59065,4.84181 c 2.60045,-3.30594 2.77237,-9.45922 0.32258,-11.54546 -0.9625,-0.81966 -3.2125,-2.069 -5,-2.77631 -1.95982,-0.77549 -3.25,-1.98933 -3.25,-3.0577 0,-2.25975 2.5919,-3.27445 5.03045,-1.96937 1.50428,0.80506 2.11502,0.58041 3.0202,-1.11095 1.47882,-2.76318 0.26994,-3.91853 -4.81347,-4.60036 -4.51168,-0.60515 -7.67519,1.60768 -8.82015,6.16957 -1.18161,4.7079 0.32714,7.52474 5.18022,9.67148 3.61281,1.59812 4.46029,2.43847 4.21269,4.17727 -0.31914,2.24127 -3.40476,2.82 -6.88182,1.29075 -1.08531,-0.47733 -1.91314,0.0576 -2.67432,1.72826 -0.94986,2.08471 -0.80151,2.5651 1.07188,3.47095 1.19588,0.57826 4.05416,1.08183 6.35174,1.11905 3.36706,0.0546 4.57947,-0.44344 6.25,-2.56718 z m 18.81015,1.10612 c 2.40021,-1.68118 3.83637,-7.08757 2.77286,-10.43839 -0.37453,-1.18004 -2.66137,-3.10387 -5.09498,-4.28621 -2.6383,-1.28178 -4.41545,-2.8269 -4.41545,-3.83894 0,-2.15522 2.61219,-3.18564 4.93051,-1.94491 1.4218,0.76092 2.01652,0.44885 2.91889,-1.53163 1.01657,-2.23112 0.87001,-2.58736 -1.42316,-3.45922 -6.79771,-2.58449 -12.42624,0.96106 -12.42624,7.8276 0,4.28597 1.4868,6.07386 6.80089,8.17815 2.48069,0.98231 3.22613,1.83078 3,3.41469 -0.3376,2.36474 -4.33714,3.47135 -6.11623,1.69226 -1.59467,-1.59467 -2.4772,-1.34081 -3.77609,1.08618 -0.96276,1.79894 -0.85039,2.39853 0.65595,3.5 2.45786,1.79723 9.48673,1.68199 12.17305,-0.19958 z m 17.65842,-1.22126 c 0.3052,-1.5125 1.06642,-5.81203 1.69161,-9.55452 0.62518,-3.74248 1.26975,-6.66748 1.43238,-6.5 0.16262,0.16749 1.99317,4.55144 4.06789,9.74213 l 3.7722,9.43761 3.49328,-9.18761 c 1.9213,-5.05319 3.80003,-9.18761 4.17496,-9.18761 0.37492,0 1.26218,4.05 1.97169,9 0.80903,5.64437 1.73961,9 2.49586,9 0.88366,0 0.58068,-3.51497 -1.13396,-13.15562 -1.28689,-7.23559 -2.46222,-13.27803 -2.61183,-13.42765 -0.14962,-0.14961 -2.02743,4.43758 -4.17291,10.19376 -2.14549,5.75618 -4.21264,10.11112 -4.59367,9.67765 -0.38103,-0.43348 -2.41646,-5.28814 -4.52319,-10.78814 l -3.8304,-10 -2.25774,12.5 c -1.24176,6.875 -2.28349,13.0625 -2.31495,13.75 -0.11127,2.43121 1.79182,1.21065 2.33878,-1.5 z m 29.72216,-1.25 1.19843,-4 5.68342,0 5.68342,0 1.19843,4 c 0.65914,2.2 1.63037,4 2.15829,4 0.52792,0 0.96484,-0.3375 0.97093,-0.75 0.0306,-2.07448 -9.55624,-26.1022 -10.16518,-25.47718 -0.84257,0.8648 -9.84589,24.0235 -9.84589,25.32596 0,2.47039 2.06419,0.41903 3.11815,-3.09878 z m 2.8769,-6.75 c -0.0108,-1.63196 3.4436,-10.25 4.10849,-10.25 0.67067,0 3.89646,8.42625 3.89646,10.17814 0,0.45202 -1.8,0.82186 -4,0.82186 -2.2,0 -4.00223,-0.3375 -4.00495,-0.75 z m 20.22112,0.01 0.28383,-10.74025 6,6.99974 c 3.3,3.84985 7.4625,8.78549 9.25,10.96809 l 3.25,3.96835 0,-13.72784 c 0,-16.30946 -1.79345,-18.88676 -2.21617,-3.18476 l -0.28383,10.54304 -9.25,-11.15693 -9.25,-11.15692 0,14.11384 c 0,16.72383 1.7913,19.45067 2.21617,3.37359 z m 38.32928,8.2857 c 2.30977,-2.30981 2.45455,-3.10611 2.45455,-13.50004 0,-14.66179 -1.84685,-14.52153 -2.21725,0.16838 -0.27915,11.07101 -0.31778,11.23341 -3.03275,12.75 -2.47321,1.38155 -3.02679,1.38155 -5.5,0 -2.71497,-1.51659 -2.7536,-1.67899 -3.03275,-12.75 -0.3704,-14.68991 -2.21725,-14.83017 -2.21725,-0.16838 0,10.39393 0.14478,11.19023 2.45455,13.5 1.54723,1.54723 3.59708,2.45454 5.54545,2.45454 1.94837,0 3.99822,-0.90731 5.54545,-2.45454 z m 9.5727,-1.5455 1.19843,-4 5.68342,0 5.68342,0 1.19843,4 c 0.65914,2.2 1.63037,4 2.15829,4 0.52792,0 0.96484,-0.3375 0.97093,-0.75 0.0306,-2.07448 -9.55624,-26.1022 -10.16518,-25.47718 -0.84257,0.8648 -9.84589,24.0235 -9.84589,25.32596 0,2.47039 2.06419,0.41903 3.11815,-3.09878 z m 2.8769,-6.75 c -0.0108,-1.63196 3.4436,-10.25 4.10849,-10.25 0.67067,0 3.89646,8.42625 3.89646,10.17814 0,0.45202 -1.8,0.82186 -4,0.82186 -2.2,0 -4.00223,-0.3375 -4.00495,-0.75 z m 27.00495,9.25 c 0,-1.04762 -1.05556,-1.5 -3.5,-1.5 l -3.5,0 0,-12 c 0,-7.33333 -0.38889,-12 -1,-12 -0.61728,0 -1,5.16667 -1,13.5 l 0,13.5 4.5,0 c 3.33333,0 4.5,-0.38889 4.5,-1.5 z m 13.68555,-0.67431 c 4.78109,-4.49161 2.48757,-10.76052 -5.49854,-15.02918 -3.29978,-1.76377 -4.11462,-4.4689 -1.98701,-6.59651 1.45559,-1.45559 5.44571,-1.58227 6.3,-0.2 0.33992,0.55 1.04148,1 1.55902,1 1.79544,0 0.92773,-1.96258 -1.59998,-3.6188 -3.21373,-2.10571 -7.0244,-0.65459 -8.50458,3.23859 -1.50376,3.95519 -0.30308,6.18419 5.13293,9.529 4.02255,2.4751 4.91261,3.53781 4.91261,5.86556 0,5.74608 -5.37321,7.86924 -8.82134,3.48565 -1.08158,-1.375 -2.23924,-2.5 -2.57258,-2.5 -1.1744,0 -0.58342,1.75909 1.4665,4.36514 2.56168,3.25665 6.43893,3.4424 9.61297,0.46055 z"
         id="path3207"
         inkscape:connector-curvature="0" />
      <path
         style="fill:#020100"
         d="m 95.653707,588.73217 c -0.56935,-1.06384 -1.03518,-4.3691 -1.03518,-7.34501 0,-8.82923 -0.33913,-8.72073 27.257313,-8.72073 20.12106,0 23.83147,0.23164 25.17126,1.57143 1.91984,1.91984 2.19984,13.40015 0.37143,15.22857 -0.86873,0.86873 -8.03663,1.2 -25.96482,1.2 -23.460793,0 -24.819323,-0.10185 -25.800003,-1.93426 z m 4.18732,-21.62244 c -2.15468,-1.5092 -2.2225,-2.0982 -2.2225,-19.3 0,-12.46701 0.35684,-18.10014 1.2,-18.9433 1.700003,-1.7 43.900003,-1.7 45.600003,0 0.84316,0.84316 1.2,6.47629 1.2,18.9433 0,17.2018 -0.0678,17.7908 -2.22251,19.3 -3.27925,2.29687 -40.27574,2.29687 -43.554993,0 z m 27.936253,-6.49678 c 4.87144,-1.64107 6.70259,-1.8419 9.11768,-1 1.66211,0.57941 3.17986,1.05348 3.37279,1.05348 0.19293,0 0.35078,-6.05917 0.35078,-13.46482 0,-12.74754 -0.11434,-13.52601 -2.14643,-14.61354 -2.57267,-1.37686 -9.48606,-0.74626 -13.47514,1.22913 -2.54453,1.26004 -3.40044,1.22428 -7.37843,-0.3083 -5.16379,-1.98944 -10.26765,-2.30478 -13.06574,-0.80729 -1.76981,0.94717 -1.93426,2.21599 -1.93426,14.92336 l 0,13.88817 3.05465,-1.52386 c 2.79725,-1.39545 3.5346,-1.35877 8.75,0.43534 7.41672,2.55137 6.38281,2.53679 13.3541,0.18833 z"
         id="path3197"
         inkscape:connector-curvature="0" />
    </g>
  </g>
</svg>
