<?xml version="1.0" encoding="UTF-8" standalone="no"?>
<!-- Created with Inkscape (http://www.inkscape.org/) -->

<svg
   xmlns:dc="http://purl.org/dc/elements/1.1/"
   xmlns:cc="http://creativecommons.org/ns#"
   xmlns:rdf="http://www.w3.org/1999/02/22-rdf-syntax-ns#"
   xmlns:svg="http://www.w3.org/2000/svg"
   xmlns="http://www.w3.org/2000/svg"
   xmlns:sodipodi="http://sodipodi.sourceforge.net/DTD/sodipodi-0.dtd"
   xmlns:inkscape="http://www.inkscape.org/namespaces/inkscape"
   width="177.16534"
   height="177.16534"
   id="svg1529"
   version="1.1"
   inkscape:version="0.48.3.1 r9886"
   sodipodi:docname="sticker-fmfr.svg">
  <defs
     id="defs3" />
  <sodipodi:namedview
     inkscape:document-units="mm"
     id="base"
     pagecolor="#ffffff"
     bordercolor="#666666"
     borderopacity="1.0"
     inkscape:pageopacity="0.0"
     inkscape:pageshadow="2"
     inkscape:zoom="1.4496474"
     inkscape:cx="66.999051"
     inkscape:cy="173.03058"
     inkscape:current-layer="layer1"
     showgrid="false"
     fit-margin-top="0"
     fit-margin-left="0"
     fit-margin-right="0"
     fit-margin-bottom="0"
     showguides="true"
     inkscape:guide-bbox="true"
     inkscape:window-width="1025"
     inkscape:window-height="863"
     inkscape:window-x="642"
     inkscape:window-y="200"
     inkscape:window-maximized="0"
     units="cm" />
  <metadata
     id="metadata4">
    <rdf:RDF>
      <cc:Work
         rdf:about="">
        <dc:format>image/svg+xml</dc:format>
        <dc:type
           rdf:resource="http://purl.org/dc/dcmitype/StillImage" />
        <dc:title />
      </cc:Work>
    </rdf:RDF>
  </metadata>
  <g
     inkscape:label="Layer 1"
     inkscape:groupmode="layer"
     id="layer1"
     transform="translate(-109.77654,-376.84883)">
    <g
       id="g3040"
       transform="matrix(0.54435816,0,0,0.54435816,53.715473,248.73533)">
      <path
         id="path2959"
         d="m 421.65203,398.07646 c 0,86.12205 -69.81571,155.93775 -155.93775,155.93775 -86.12203,0 -155.93774,-69.8157 -155.93774,-155.93775 0,-86.12203 69.81571,-155.93774 155.93774,-155.93774 86.12204,0 155.93775,69.81571 155.93775,155.93774 z"
         style="color:#000000;fill:#ff7f00;fill-opacity:1;stroke:none;stroke-width:10;marker:none;visibility:visible;display:inline;overflow:visible;enable-background:accumulate"
         inkscape:connector-curvature="0" />
      <path
         inkscape:connector-curvature="0"
         id="path3231"
         d="m 215.44206,334.18284 19.93171,-5.24518 78.67777,2.09807 6.29422,53.50089 -8.39229,26.22592 -97.56045,-1.04904 0,-46.15763 z"
         style="fill:#ffffff;fill-opacity:1;stroke:#000000;stroke-width:0.98487002px;stroke-linecap:butt;stroke-linejoin:miter;stroke-opacity:1" />
      <path
         sodipodi:nodetypes="ssssssssszcscsszsscssssssssss"
         inkscape:connector-curvature="0"
         d="m 211.00855,414.88965 c -2.93728,-4.19347 -3.6324,-12.67863 -3.6324,-44.33479 0,-52.55387 -4.89894,-48.4824 58.33523,-48.4824 63.35807,0 58.33523,-4.2885 58.33523,49.80666 0,36.24621 -0.44566,40.87635 -4.26725,44.33479 -3.69355,3.34269 -11.0464,3.86177 -54.70273,3.86177 -49.47357,0 -50.50492,-0.0989 -54.06808,-5.18603 z m 64.11208,-12.35368 c 9.28663,-4.80227 23.10997,-7.07231 28.92199,-2.48595 6.72932,5.3102 6.45395,-7.27006 6.00357,-29.85957 -0.45038,-22.5895 3.92067,-29.70729 -6.54476,-34.93479 -7.66711,-3.17584 -17.01609,-1.41389 -27.28188,3.89479 -2.74139,1.41759 -6.0861,1.95335 -8.6444,3.43021 -3.44143,-1.29985 -7.01582,-2.0759 -11.60039,-4.15643 -12.2379,-5.55363 -22.46331,-5.91944 -29.41216,-1.0523 -4.90859,3.43811 -5.18603,5.61227 -5.18603,34.0841 0,28.47184 0.3125,30.31606 4.08347,28.67975 8.51361,-3.6943 18.40594,-3.31757 27.4176,1.04411 6.57548,3.1826 9.51817,3.42752 12.88564,4.74055 3.61497,-1.77817 5.663,-1.47402 9.35735,-3.38447 z m -62.28958,24.99584 105.76647,0 c 6.22201,0 11.23106,5.00906 11.23106,11.23105 l 0,24.16687 c 0,6.22199 -5.00905,11.23105 -11.23106,11.23105 l -105.76647,0 c -6.22202,0 -11.23106,-5.00906 -11.23106,-11.23105 l 0,-24.16687 c 0,-6.22199 5.00904,-11.23105 11.23106,-11.23105 z"
         style="fill:#2e3436"
         id="path2996" />
      <path
         sodipodi:nodetypes="cs"
         id="path6770"
         d="m 143.40709,479.27614 c 56.46049,80.31717 216.61375,70.73227 242.71719,-4.18112"
         style="fill:none;stroke:none"
         inkscape:connector-curvature="0" />
      <path
         inkscape:connector-curvature="0"
         style="color:#000000;fill:none;stroke:none;stroke-width:10;marker:none;visibility:visible;display:inline;overflow:visible;enable-background:accumulate"
         d="m 268.37785,273.29174 c -70.00864,-1.92015 -128.31844,53.27649 -130.23859,123.28514 -1.92014,70.00865 53.27651,128.31845 123.28514,130.2386 70.00867,1.92014 128.31846,-53.27651 130.2386,-123.28514 1.92016,-70.00866 -53.27648,-128.31846 -123.28515,-130.2386 z"
         id="path2150" />
      <g
         id="text2152"
         style="font-size:22.5px;font-style:normal;font-variant:normal;font-weight:bold;font-stretch:normal;text-align:center;line-height:125%;writing-mode:lr-tb;text-anchor:middle;color:#000000;fill:#2e3436;fill-opacity:1;fill-rule:nonzero;stroke:none;stroke-width:5;marker:none;visibility:visible;display:inline;overflow:visible;enable-background:accumulate;font-family:Gillius ADF;-inkscape-font-specification:Gillius ADF Bold">
        <path
           inkscape:connector-curvature="0"
           id="path3000"
           style="marker:none"
           d="m 175.75608,475.67904 -1.37087,-1.84058 -5.5446,1.52053 2.71948,-5.84097 -6.34827,0.96886 2.99101,-4.94906 -1.38431,-1.85863 -5.89104,9.60593 7.27626,-1.26727 -3.27116,6.64464 10.8235,-2.98345" />
        <path
           inkscape:connector-curvature="0"
           id="path3002"
           style="marker:none"
           d="m 186.13309,486.43511 -1.59324,-1.65186 -5.30698,2.21145 1.95674,-6.1387 -6.17413,1.76614 2.3392,-5.28843 -1.60886,-1.66805 -4.62521,10.27548 7.05679,-2.17983 -2.40204,7.00584 10.35773,-4.33204" />
        <path
           inkscape:connector-curvature="0"
           id="path3004"
           style="marker:none"
           d="m 197.80095,495.83318 -1.7847,-1.44287 -4.99393,2.84873 1.18515,-6.33308 -5.90934,2.51371 1.66949,-5.53643 -1.8022,-1.45702 -3.32335,10.76724 6.73428,-3.03305 -1.52017,7.2485 9.74477,-5.57573" />
        <path
           inkscape:connector-curvature="0"
           id="path3006"
           style="marker:none"
           d="m 194.67795,505.67187 1.29137,-1.89721 -2.0832,-1.41798 -1.29138,1.89721 2.08321,1.41798" />
        <path
           inkscape:connector-curvature="0"
           id="path3008"
           style="marker:none"
           d="m 206.67821,503.31009 0.932,-1.53993 -2.36763,-1.43296 0.7456,-1.23194 c 0.83881,-1.38593 1.88382,-1.20056 2.11481,-1.06076 l 1.65541,1.0019 1.02521,-1.69391 -1.63617,-0.99026 c -1.55158,-0.91275 -3.78545,-1.00235 -5.4276,1.58057 l -0.6524,1.07795 -1.32819,-0.80385 -0.932,1.53992 1.32818,0.80385 -4.32216,7.14141 2.17514,1.31645 4.32217,-7.1414 2.36763,1.43296" />
        <path
           inkscape:connector-curvature="0"
           id="path3010"
           style="marker:none"
           d="m 213.14226,507.54232 1.4171,-1.49286 c -0.0825,-0.42425 -1.00123,-1.33735 -1.73866,-1.72367 -0.77825,-0.35691 -1.58404,-0.32184 -2.29589,0.0673 l 0.43853,-0.83709 -2.17243,-1.1381 -4.6986,8.96877 2.17244,1.1381 2.47459,-4.72355 c 0.56478,-1.12655 1.91638,-2.34892 3.13215,-1.712 0.0598,0.0313 0.13951,0.0731 0.1993,0.10441 0.57799,0.3028 1.02119,0.81439 1.07147,1.34874" />
        <path
           inkscape:connector-curvature="0"
           id="path3012"
           style="marker:none"
           d="m 213.24482,515.90828 0.95631,-2.08627 -2.2908,-1.05006 -0.95631,2.08627 2.2908,1.05006" />
        <path
           inkscape:connector-curvature="0"
           id="path3014"
           style="marker:none"
           d="m 230.63652,506.01976 -4.64326,-1.71541 c -2.29501,-0.7999 -4.27883,-0.42943 -5.3191,2.2565 l -0.50683,1.37188 -1.41408,-0.52242 -0.62379,1.68845 1.41409,0.52242 -2.89281,7.83023 2.38495,0.8811 2.89281,-7.83023 2.42715,0.89669 0.62379,-1.68845 -2.42716,-0.8967 0.65498,-1.77288 c 0.40089,-0.95526 1.2134,-1.20678 2.07873,-0.88709 l 2.30053,0.84991 -4.70959,12.74786 2.36384,0.8733 5.39575,-14.60516" />
        <path
           inkscape:connector-curvature="0"
           id="path3016"
           style="marker:none"
           d="m 237.07683,518.63211 c -0.44577,1.65103 -1.78979,2.9096 -3.29381,2.52467 -2.016,-0.5624 -1.9504,-2.54298 -1.61568,-3.85082 0.42397,-1.65661 1.52769,-2.88377 3.23347,-2.47044 1.56384,0.42346 2.06704,2.178 1.67602,3.79659 m 2.59389,0.66386 c 0.66944,-2.6157 -0.46526,-5.62345 -3.75668,-6.46582 -3.22602,-0.82563 -5.65898,0.96713 -6.42273,3.86061 -0.66437,2.68666 0.62901,5.6189 3.77848,6.47139 3.23718,0.78204 5.67066,-1.10349 6.40093,-3.86618" />
        <path
           inkscape:connector-curvature="0"
           id="path3018"
           style="marker:none"
           d="m 249.71136,523.07173 c 0.33253,-2.08869 -1.1905,-2.96909 -3.17461,-3.67229 l -0.53075,-0.24397 c -0.73072,-0.27582 -1.91292,-0.57795 -1.78203,-1.40009 0.21523,-0.92264 1.41413,-0.86847 2.30293,-0.72697 1.83366,0.36027 1.68973,0.40571 3.32385,1.3038 l 0.33607,-2.11092 c -1.02512,-0.5733 -2.25983,-0.97492 -3.59304,-1.18717 -2.22202,-0.35375 -4.51987,0.0551 -4.89131,2.38818 -0.23756,1.92155 0.98245,2.84485 2.83679,3.50459 l 0.64538,0.23945 c 0.94585,0.35563 2.06493,0.62492 1.90574,1.62483 -0.21524,0.92263 -1.37323,0.89776 -2.26203,0.75626 -1.92608,-0.3522 -2.18665,-0.57595 -3.86621,-1.61797 l -0.36082,2.26646 c 1.0428,0.4622 2.71584,1.11586 3.91573,1.30689 2.17757,0.34667 4.80873,-0.009 5.19431,-2.43108" />
        <path
           inkscape:connector-curvature="0"
           id="path3020"
           style="marker:none"
           d="m 260.32863,523.91199 c 0.1531,-2.10945 -1.43949,-2.8567 -3.47636,-3.38805 l -0.54963,-0.1978 c -0.75159,-0.21247 -1.95526,-0.41263 -1.89499,-1.24294 0.13573,-0.93764 1.33487,-0.98596 2.23251,-0.92081 1.85771,0.20251 1.71819,0.26007 3.42297,1.01546 l 0.15474,-2.1319 c -1.07029,-0.48374 -2.33477,-0.77855 -3.68123,-0.87628 -2.24409,-0.16288 -4.49869,0.4405 -4.66971,2.7968 -0.0727,1.93481 1.22159,2.75065 3.12545,3.24978 l 0.66346,0.18351 c 0.97274,0.27363 2.11072,0.44646 2.03742,1.45631 -0.13573,0.93763 -1.29162,1.01165 -2.18926,0.9465 -1.9491,-0.18659 -2.22781,-0.38729 -3.99015,-1.28221 l -0.16613,2.28898 c 1.07843,0.37154 2.80114,0.88008 4.01295,0.96803 2.19921,0.15962 4.79042,-0.41932 4.96796,-2.86538" />
        <path
           inkscape:connector-curvature="0"
           id="path3022"
           style="marker:none"
           d="m 279.0171,526.35891 -0.27321,-6.02381 c -0.10297,-2.27016 -1.18676,-4.31566 -4.04132,-4.18619 -1.59586,0.0724 -2.82297,0.82625 -3.64859,1.98985 -0.63436,-1.07486 -1.8133,-1.74213 -3.29677,-1.67484 -1.1688,0.053 -2.31212,0.66794 -3.01919,1.4658 l -0.0479,-1.05642 -2.51741,0.11418 0.45875,10.1146 2.51741,-0.11417 -0.25792,-5.68666 c -0.0233,-1.50799 0.93613,-2.70019 2.35217,-2.76441 0.0449,-0.002 0.0674,-0.003 0.0899,-0.004 1.41604,-0.0642 1.83791,0.79505 1.90519,2.27852 l 0.27117,5.97885 2.58484,-0.11723 -0.25792,-5.68666 c -0.0274,-1.59789 0.73383,-2.69101 2.46455,-2.76951 1.41605,-0.0642 1.81849,0.8635 1.88272,2.27954 l 0.27117,5.97886 2.56237,-0.11622" />
        <path
           inkscape:connector-curvature="0"
           id="path3024"
           style="marker:none"
           d="m 287.31703,520.06007 c 0.27726,1.64175 -0.22631,3.11874 -2.02336,3.42223 -0.93181,0.15737 -1.73513,-0.14052 -1.91123,-1.18325 -0.25104,-1.48645 1.16136,-1.77062 2.5147,-1.99918 l 0.22185,-0.0375 1.19804,-0.20233 m 3.16821,4.30249 -0.96293,-5.70176 c -0.49084,-2.90634 -2.1105,-4.38984 -5.37181,-3.83906 -1.17585,0.19858 -2.53205,0.81554 -3.55171,1.39848 l 0.3522,2.08547 c 1.12655,-0.76072 1.96153,-1.2212 3.38142,-1.461 1.29427,-0.17294 2.38976,0.0984 2.67363,1.37396 l -1.81924,0.30724 c -2.61792,0.44213 -4.76443,1.64893 -4.31856,4.28904 0.40407,2.12235 1.98567,3.11026 4.29299,2.72059 1.19804,-0.20232 2.20646,-0.85182 2.77777,-1.7926 l 0.17236,1.02055 2.37388,-0.40091" />
        <path
           inkscape:connector-curvature="0"
           id="path3026"
           style="marker:none"
           d="m 302.64236,521.25079 -1.56913,-5.82226 c -0.64404,-2.38973 -2.26555,-3.91017 -5.04633,-3.16074 -1.10797,0.29861 -2.13227,0.99411 -2.63672,2.06217 l -0.26933,-0.99934 -2.36801,0.63819 2.63473,9.77619 2.36801,-0.63819 -1.4813,-5.49639 c -0.37811,-1.5759 0.37363,-2.85043 1.87265,-3.25442 1.41211,-0.38057 2.09082,0.32202 2.4831,1.77759 l 1.55742,5.77881 2.45491,-0.66161" />
        <path
           inkscape:connector-curvature="0"
           id="path3028"
           style="marker:none"
           d="m 314.38184,516.94251 -3.60573,-9.48528 -2.37658,0.90344 2.02273,5.321 c 0.56764,1.49325 0.17323,2.79859 -1.46724,3.42219 -1.40912,0.53567 -2.14955,-0.1457 -2.66922,-1.51276 l -2.13466,-5.61545 -2.39761,0.91143 2.15065,5.65751 c 0.87145,2.29245 2.74983,3.62443 5.39982,2.61706 1.07261,-0.40774 1.92432,-1.33328 2.3255,-2.3042 l 0.37577,0.98849 2.37657,-0.90343" />
        <path
           inkscape:connector-curvature="0"
           id="path3030"
           style="marker:none"
           d="m 320.68648,508.64166 c 0.73797,1.49252 0.68071,3.05194 -0.95299,3.85972 -0.84711,0.41884 -1.70217,0.36472 -2.17088,-0.58323 -0.66817,-1.35134 0.60272,-2.02992 1.83304,-2.63825 l 0.20169,-0.0997 1.08914,-0.53852 m 4.2723,3.20881 -2.56295,-5.18349 c -1.30641,-2.64217 -3.28445,-3.59685 -6.24933,-2.13088 -1.06897,0.52854 -2.19027,1.50967 -2.99905,2.36137 l 0.93742,1.8959 c 0.85999,-1.05272 1.52715,-1.73399 2.81798,-2.37223 1.18976,-0.53807 2.31699,-0.59343 2.95591,0.54647 l -1.65388,0.81775 c -2.37996,1.17676 -4.08841,2.9502 -2.90168,5.35034 0.99771,1.9163 2.79669,2.40731 4.89429,1.37016 1.08914,-0.53852 1.86801,-1.45073 2.14444,-2.51611 l 0.45874,0.92778 2.15811,-1.06706" />
        <path
           inkscape:connector-curvature="0"
           id="path3032"
           style="marker:none"
           d="m 329.59892,509.14227 -7.83366,-13.45581 -2.06115,1.19996 7.83366,13.4558 2.06115,-1.19995" />
        <path
           inkscape:connector-curvature="0"
           id="path3034"
           style="marker:none"
           d="m 337.69161,500.37846 c -1.18064,-1.75479 -2.89509,-1.36061 -4.82607,-0.52244 l -0.55462,0.18332 c -0.72263,0.29637 -1.79351,0.88127 -2.25823,0.19056 -0.47152,-0.82174 0.44253,-1.59943 1.18925,-2.10184 1.58712,-0.98648 1.5128,-0.85511 3.32058,-1.3121 l -1.19321,-1.77346 c -1.14081,0.27942 -2.31793,0.82734 -3.43801,1.58094 -1.8668,1.25601 -3.26922,3.12161 -1.95041,5.08175 1.13617,1.56777 2.65817,1.41154 4.46458,0.63006 l 0.6354,-0.26479 c 0.93443,-0.38463 1.93674,-0.95053 2.50195,-0.11047 0.47152,0.82174 -0.39263,1.59298 -1.13935,2.09538 -1.64924,1.05539 -1.99241,1.06933 -3.93155,1.45198 l 1.28112,1.90414 c 1.07802,-0.37276 2.74764,-1.03509 3.75571,-1.71333 1.82947,-1.23089 3.51191,-3.28489 2.14286,-5.3197" />
        <path
           inkscape:connector-curvature="0"
           id="path3036"
           style="marker:none"
           d="m 343.30469,499.73277 -1.40192,-1.81704 -1.99519,1.53936 1.40192,1.81704 1.99519,-1.53936" />
        <path
           inkscape:connector-curvature="0"
           id="path3038"
           style="marker:none"
           d="m 352.9266,491.46257 -4.01435,-4.49954 c -1.64768,-1.84683 -3.77896,-2.47823 -5.92799,-0.56093 -0.85626,0.76392 -1.45968,1.84504 -1.43136,3.02589 l -0.68903,-0.77231 -1.83004,1.63271 6.74051,7.5552 1.83004,-1.6327 -3.78967,-4.2477 c -1.0449,-1.23879 -0.94483,-2.71512 0.21363,-3.74866 1.09131,-0.97363 2.01309,-0.65019 3.01667,0.47469 l 3.98439,4.46597 1.8972,-1.69262" />
        <path
           inkscape:connector-curvature="0"
           id="path3040"
           style="marker:none"
           d="m 355.13337,479.77935 -3.33109,3.6004 c -0.61556,-1.09061 -0.73396,-2.08909 0.21341,-3.11306 1.03905,-1.12306 2.11517,-1.29225 3.11768,-0.48734 m 3.00207,-0.59429 -0.69365,-0.64177 c -2.13051,-1.97115 -4.6498,-2.06433 -6.89599,0.36346 -2.26147,2.44431 -1.59864,5.5711 0.46581,7.48112 2.24612,2.07811 5.25392,2.04085 7.56123,-0.453 1.00849,-1.09003 1.70937,-2.3114 2.27812,-3.65502 l -1.5855,-1.4669 c -0.67617,1.85729 -0.74392,2.16244 -2.13442,3.66536 -1.22242,1.32125 -3.02815,1.15258 -4.05335,0.17341 l 5.05775,-5.46666" />
        <path
           inkscape:connector-curvature="0"
           id="path3042"
           style="marker:none"
           d="m 366.97775,475.40179 -1.53956,-1.20894 -1.32012,1.68113 c -0.73649,0.93789 -1.1055,0.9342 -2.06109,0.18382 l -3.94623,-3.0988 1.80648,-2.30049 -1.39799,-1.09779 -1.80648,2.3005 -2.19432,-1.7231 -0.90323,1.15024 1.58289,2.50173 -0.77817,0.99098 1.39799,1.09779 0.76428,-0.97329 3.94623,3.0988 c 2.08814,1.63972 3.4061,1.27287 5.1292,-0.92145 l 1.32012,-1.68113" />
      </g>
      <g
         id="text820"
         style="font-size:39.43732452px;font-style:normal;font-variant:normal;font-weight:bold;font-stretch:normal;text-align:center;line-height:125%;writing-mode:lr-tb;text-anchor:middle;color:#000000;fill:#ffffff;fill-opacity:1;stroke:none;stroke-width:5;marker:none;visibility:visible;display:inline;overflow:visible;enable-background:accumulate;font-family:Gillius ADF;-inkscape-font-specification:Gillius ADF Bold">
        <path
           inkscape:connector-curvature="0"
           id="path2994"
           style="marker:none"
           d="m 261.70679,440.8584 0,-3.7071 -15.85381,0 0,27.29063 4.41698,0 0,-12.73826 10.29315,0 0,-3.66767 -10.29315,0 0,-7.1776 11.43683,0" />
        <path
           inkscape:connector-curvature="0"
           id="path2997"
           style="marker:none"
           d="m 278.20083,445.11764 c 0,3.03667 -1.77468,4.45641 -4.57473,4.45641 l -4.0226,0 0,-8.79452 4.0226,0 c 2.72118,0.0789 4.57473,1.22256 4.57473,4.33811 m 7.37478,19.32429 c -2.20848,-2.40568 -3.15498,-6.11279 -3.86485,-7.76916 -0.82819,-1.61693 -1.85356,-3.78598 -3.54936,-5.12685 4.0226,-1.14368 4.81135,-3.35218 4.81135,-6.42828 0,-5.6001 -3.54937,-7.96634 -9.34665,-7.96634 l -8.43958,0 0,27.29063 4.41698,0 0,-11.20021 3.43104,0 c 0.0789,0 0.11832,0 0.19719,0 1.57749,0 2.80005,1.38031 4.06205,4.18036 1.10424,2.36624 1.41974,5.2846 3.62823,7.01985 l 4.6536,0" />
      </g>
    </g>
  </g>
</svg>
