<?xml version="1.0"?>
<svg xmlns:rdf="http://www.w3.org/1999/02/22-rdf-syntax-ns#" xmlns="http://www.w3.org/2000/svg" xmlns:cc="http://creativecommons.org/ns#" xmlns:dc="http://purl.org/dc/elements/1.1/" xmlns:svg="http://www.w3.org/2000/svg" id="svg3418" viewBox="0 0 587.11 517.39" version="1.1">
  <g id="layer1" transform="translate(561.1 -685.49)">
    <g id="g3029" transform="matrix(.82302 0 0 .82302 -570.5 631.92)">
      <g id="g3031">
        <g id="g3033" stroke="#000" stroke-linecap="round">
          <path id="path3035" stroke-width="12.5" transform="matrix(.80662 0 0 .80662 133.19 123.15)" fill="none" d="m291.34-65.688c-10.868 0.53434-20.712 6.5473-26.156 15.969l-405.62 702.62c-5.7255 9.9109-5.7205 22.117 0 32.031 5.7205 9.9143 16.273 16.028 27.719 16.031l807.88 0.15625c11.419-0.006 21.96-6.09 27.688-15.969 5.7273-9.8788 5.7621-22.056 0.0937-31.969l-402.25-702.77c-5.98-10.462-17.31-16.681-29.35-16.098z"/>
          <path id="path3037" stroke-linejoin="round" d="m292.91-32.375-404.5 700.66 805.62 0.15625c-133.71-233.61-267.41-467.2-401.12-700.82z" fill-rule="evenodd" transform="matrix(.80662 0 0 .80662 133.19 123.15)" stroke-width="29.444" fill="#fc0"/>
        </g>
      </g>
      <g id="g1192" transform="matrix(5.1553 0 0 5.1553 -38.606 9.51)">
        <path id="path1193" d="m70.455 90.444c0-2.9306 1.5582-5.4974 3.8913-6.917l-9.576-17.629c-8.574 4.822-14.367 14.008-14.367 24.546h20.052z"/>
        <path id="path1194" d="m82.995 97.677c-2.5385 1.4658-5.5408 1.3999-7.9373 0.089l-10.481 17.114c8.4654 5.015 19.318 5.439 28.446 0.168l-10.028-17.373z"/>
        <path id="path1195" d="m82.904 82.568c2.5389 1.4656 3.9834 4.0991 4.0464 6.8301l20.061 0.5201c0.11-9.8399-4.951-19.451-14.08-24.721l-10.026 17.371z"/>
        <path id="path1196" d="m78.795 96.073c3.1085 0 5.6286-2.5201 5.6286-5.6287 0-3.1085-2.5201-5.6286-5.6286-5.6286s-5.6286 2.5201-5.6286 5.6286c0 3.1086 2.5201 5.6287 5.6286 5.6287z"/>
      </g>
    </g>
  </g>
  <metadata>
    <rdf:RDF>
      <cc:Work>
        <dc:format>image/svg+xml</dc:format>
        <dc:type rdf:resource="http://purl.org/dc/dcmitype/StillImage"/>
        <cc:license rdf:resource="http://creativecommons.org/licenses/publicdomain/"/>
        <dc:publisher>
          <cc:Agent rdf:about="http://openclipart.org/">
            <dc:title>Openclipart</dc:title>
          </cc:Agent>
        </dc:publisher>
        <dc:title>warning</dc:title>
        <dc:date>2010-10-23T19:17:32</dc:date>
        <dc:description>clip art, clipart, warning, </dc:description>
        <dc:source>http://openclipart.org/detail/92269/warning-by-yves_guillou-92269</dc:source>
        <dc:creator>
          <cc:Agent>
            <dc:title>yves_guillou</dc:title>
          </cc:Agent>
        </dc:creator>
        <dc:subject>
          <rdf:Bag>
            <rdf:li>clip art</rdf:li>
            <rdf:li>clipart</rdf:li>
            <rdf:li>warning</rdf:li>
          </rdf:Bag>
        </dc:subject>
      </cc:Work>
      <cc:License rdf:about="http://creativecommons.org/licenses/publicdomain/">
        <cc:permits rdf:resource="http://creativecommons.org/ns#Reproduction"/>
        <cc:permits rdf:resource="http://creativecommons.org/ns#Distribution"/>
        <cc:permits rdf:resource="http://creativecommons.org/ns#DerivativeWorks"/>
      </cc:License>
    </rdf:RDF>
  </metadata>
</svg>
